<svg xmlns="http://www.w3.org/2000/svg" height="512pt" viewBox="0 0 512.20914 512" width="512pt"><path d="m240.117188 248.1875h-16c-4.417969 0-8-3.582031-8-8s3.582031-8 8-8h32v-16h-16v-16h-16v16c-13.257813 0-24 10.746094-24 24s10.742187 24 24 24h16c4.417968 0 8 3.582031 8 8s-3.582032 8-8 8h-32v16h16v16h16v-16c13.253906 0 24-10.746094 24-24s-10.746094-24-24-24zm0 0"></path><path d="m307.429688 344.1875 12.6875-12.6875 12.6875 12.6875h19.3125v-176h-24v-16c.03125-17.160156-9.117188-33.027344-23.984376-41.597656-14.867187-8.570313-33.183593-8.535156-48.015624.09375-14.835938-8.628906-33.148438-8.664063-48.015626-.09375-14.867187 8.570312-24.015624 24.4375-23.984374 41.597656v16h-24v176zm20.6875-160h8v140.6875l-16-16-16 16v-140.6875zm-80-32c.027343-7.722656 2.871093-15.167969 8-20.945312 5.125 5.777343 7.96875 13.222656 8 20.945312v16h-16zm-48 0c0-17.675781 14.324218-32 32-32 3.625.035156 7.21875.695312 10.621093 1.953125-6.875 8.5-10.625 19.109375-10.621093 30.046875v16h-32zm88 176h-112v-144h112zm-8-160v-16c.003906-10.9375-3.746094-21.546875-10.625-30.046875 3.402343-1.257813 6.996093-1.917969 10.625-1.953125 17.671874 0 32 14.324219 32 32v16zm0 0"></path><path d="m496.117188 256.1875c.054687 33.34375-6.917969 66.328125-20.457032 96.800781-4.375-3.167969-9.027344-5.929687-13.902344-8.25 24.480469-56.511719 24.480469-120.636719 0-177.152343 31.425782-14.800782 51.191407-46.71875 50.429688-81.449219-.757812-34.730469-21.902344-65.753907-53.945312-79.167969-32.046876-13.410156-68.984376-6.691406-94.253907 17.144531-33.757812-15.816406-70.59375-23.984375-107.871093-23.925781v16c33.34375-.054688 66.328124 6.914062 96.800781 20.457031-3.164063 4.382813-5.917969 9.050781-8.226563 13.941407-56.511718-24.480469-120.636718-24.480469-177.152344 0-14.789062-31.433594-46.703124-51.210938-81.4375-50.460938-34.730468.75-65.765624 21.882812-79.183593 53.929688-13.417969 32.042968-6.707031 68.984374 17.125 94.261718-15.816407 33.757813-23.9843752 70.589844-23.925781 107.871094h16c-.054688-33.347656 6.914062-66.328125 20.453124-96.800781 4.386719 3.164062 9.054688 5.917969 13.945313 8.222656-24.480469 56.515625-24.480469 120.640625 0 177.152344-31.449219 14.785156-51.242187 46.707031-50.4960938 81.449219.7460938 34.746093 21.8906248 65.789062 53.9492188 79.207031 32.054688 13.417969 69.007812 6.695312 94.285156-17.160157 33.753906 15.816407 70.585938 23.988282 107.863282 23.929688v-16c-33.347657.054688-66.328126-6.917969-96.800782-20.457031 3.167969-4.371094 5.929688-9.027344 8.246094-13.902344 56.515625 24.480469 120.640625 24.480469 177.152344 0 14.800781 31.425781 46.722656 51.191406 81.453125 50.429687 34.726562-.757812 65.753906-21.902343 79.164062-53.945312 13.410157-32.046875 6.691407-68.984375-17.144531-94.253906 15.816406-33.757813 23.988281-70.59375 23.929688-107.871094zm-72-240c29.835937-.042969 56.59375 18.347656 67.253906 46.214844 10.65625 27.867187 2.996094 59.417968-19.253906 79.296875v-33.601563l-19.351563-13.925781c2.175781-4.34375 3.320313-9.128906 3.351563-13.984375 0-17.675781-14.328126-32-32-32-17.675782 0-32 14.324219-32 32 .027343 4.851562 1.175781 9.636719 3.351562 13.976562l-19.351562 13.925782v33.601562c-22.246094-19.878906-29.902344-51.429687-19.246094-79.292968 10.65625-27.863282 37.414062-46.25 67.246094-46.210938zm0 96c6.539062-.003906 12.917968-2.027344 18.261718-5.792969l13.738282 9.886719v35.90625h.800781c-20.574219 10.644531-45.03125 10.644531-65.601563 0h.800782v-35.90625l13.734374-9.886719c5.347657 3.765625 11.726563 5.789063 18.265626 5.792969zm-16-32c0-8.835938 7.164062-16 16-16 8.835937 0 16 7.164062 16 16s-7.164063 16-16 16c-8.835938 0-16-7.164062-16-16zm-368 27.902344v33.601562c-22.25-19.902344-29.914063-51.46875-19.261719-79.359375 10.652343-27.886719 37.410156-46.308593 67.261719-46.308593 29.851562 0 56.605468 18.421874 67.257812 46.308593 10.652344 27.890625 2.992188 59.457031-19.257812 79.359375v-33.601562l-19.351563-13.925782c2.171875-4.339843 3.320313-9.125 3.351563-13.976562 0-17.675781-14.328126-32-32-32-17.675782 0-32 14.324219-32 32 .027343 4.851562 1.175781 9.636719 3.351562 13.976562zm48 4.097656c6.539062-.003906 12.917968-2.027344 18.261718-5.792969l13.738282 9.886719v35.90625h.800781c-20.574219 10.644531-45.03125 10.644531-65.601563 0h.800782v-35.90625l13.734374-9.886719c5.347657 3.765625 11.726563 5.789063 18.265626 5.792969zm-16-32c0-8.835938 7.164062-16 16-16 8.835937 0 16 7.164062 16 16s-7.164063 16-16 16c-8.835938 0-16-7.164062-16-16zm16 416c-11.417969-.007812-22.664063-2.75-32.800782-8h.800782v-35.898438l13.734374-9.894531c10.953126 7.722657 25.578126 7.722657 36.527344 0l13.738282 9.894531v35.898438h.800781c-10.140625 5.25-21.386719 7.992188-32.800781 8zm-16-80c0-8.835938 7.164062-16 16-16 8.835937 0 16 7.164062 16 16s-7.164063 16-16 16c-8.835938 0-16-7.164062-16-16zm64 61.511719v-33.601563l-19.351563-13.917968c2.175781-4.34375 3.324219-9.132813 3.351563-13.992188 0-17.675781-14.328126-32-32-32-17.675782 0-32 14.324219-32 32 .027343 4.851562 1.175781 9.636719 3.351562 13.976562l-19.351562 13.917969v33.601563c-22.25-19.902344-29.914063-51.46875-19.261719-79.359375 10.652343-27.886719 37.410156-46.308594 67.261719-46.308594 29.851562 0 56.605468 18.421875 67.257812 46.308594 10.652344 27.890625 2.992188 59.457031-19.257812 79.359375zm200.320312-47.199219c.390625 5.496094 1.304688 10.945312 2.726562 16.269531-52.933593 23.210938-113.164062 23.210938-166.097656 0 6.609375-24.382812 2.363282-50.433593-11.648437-71.457031-14.015625-21.023438-36.425781-34.964844-61.476563-38.246094-12.992187-24.984375-19.789062-52.722656-19.824218-80.878906h-16c.023437 27.734375 6.054687 55.136719 17.679687 80.320312-5.5.390626-10.953125 1.304688-16.28125 2.726563-23.199219-52.933594-23.199219-113.160156 0-166.09375 24.386719 6.605469 50.4375 2.359375 71.460937-11.652344 21.023438-14.015625 34.96875-36.425781 38.25-61.476562 24.988282-12.988281 52.730469-19.785157 80.890626-19.824219v-16c-27.738282.023438-55.136719 6.054688-80.320313 17.679688-.394531-5.5-1.308594-10.953126-2.730469-16.28125 52.9375-23.199219 113.164063-23.199219 166.097656 0-6.609374 24.386718-2.359374 50.4375 11.652344 71.460937 14.011719 21.023437 36.425782 34.96875 61.476563 38.25 12.984375 24.988281 19.785156 52.730469 19.824219 80.890625h16c-.027344-27.738281-6.058594-55.136719-17.679688-80.320312 5.5-.394532 10.949219-1.308594 16.277344-2.726563 23.203125 52.933594 23.203125 113.160156 0 166.09375-24.386719-6.609375-50.4375-2.359375-71.460938 11.65625-21.023437 14.011719-34.96875 36.425781-38.25 61.480469-24.988281 12.984375-52.726562 19.78125-80.886718 19.816406v16c27.734374-.023438 55.136718-6.054688 80.320312-17.679688zm87.679688 65.6875c-11.417969-.007812-22.664063-2.75-32.800782-8h.800782v-35.898438l13.734374-9.894531c10.953126 7.722657 25.578126 7.722657 36.527344 0l13.738282 9.894531v35.898438h.800781c-10.140625 5.25-21.386719 7.992188-32.800781 8zm-16-80c0-8.835938 7.164062-16 16-16 8.835937 0 16 7.164062 16 16s-7.164063 16-16 16c-8.835938 0-16-7.164062-16-16zm88 8c-.015626 20.441406-8.746094 39.90625-24 53.511719v-33.601563l-19.351563-13.917968c2.175781-4.34375 3.324219-9.132813 3.351563-13.992188 0-17.675781-14.328126-32-32-32-17.675782 0-32 14.324219-32 32 .027343 4.851562 1.175781 9.636719 3.351562 13.976562l-19.351562 13.917969v33.601563c-24.609376-22.074219-31.007813-58.078125-15.515626-87.28125 15.492188-29.199219 48.890626-44.089844 80.96875-36.09375 32.074219 7.996094 54.574219 36.820312 54.546876 69.878906zm0 0"></path></svg>