<svg xmlns="http://www.w3.org/2000/svg" height="512" viewBox="0 0 64 64" width="512"><g id="Layer_13" data-name="Layer 13"><path d="m15.2085 26.8125h-6a1 1 0 0 0 -1 1v6a1 1 0 0 0 1 1h6a1 1 0 0 0 1-1v-6a1 1 0 0 0 -1-1zm-1 6h-4v-4h4z"></path><path d="m26.3335 26.8125h-6a1 1 0 0 0 -1 1v6a1 1 0 0 0 1 1h6a1 1 0 0 0 1-1v-6a1 1 0 0 0 -1-1zm-1 6h-4v-4h4z"></path><path d="m37.4585 26.8125h-6a1 1 0 0 0 -1 1v6a1 1 0 0 0 1 1h6a1 1 0 0 0 1-1v-6a1 1 0 0 0 -1-1zm-1 6h-4v-4h4z"></path><path d="m9.2085 23.6875h28.25a1 1 0 0 0 1-1v-13.5a1 1 0 0 0 -1-1h-28.25a1 1 0 0 0 -1 1v13.5a1 1 0 0 0 1 1zm1-13.5h26.25v11.5h-26.25z"></path><path d="m15.2085 37.3125h-6a1 1 0 0 0 -1 1v6a1 1 0 0 0 1 1h6a1 1 0 0 0 1-1v-6a1 1 0 0 0 -1-1zm-1 6h-4v-4h4z"></path><path d="m26.3335 37.3125h-6a1 1 0 0 0 -1 1v6a1 1 0 0 0 1 1h6a1 1 0 0 0 1-1v-6a1 1 0 0 0 -1-1zm-1 6h-4v-4h4z"></path><path d="m15.2085 47.8125h-6a1 1 0 0 0 -1 1v6a1 1 0 0 0 1 1h6a1 1 0 0 0 1-1v-6a1 1 0 0 0 -1-1zm-1 6h-4v-4h4z"></path><path d="m26.3335 47.8125h-6a1 1 0 0 0 -1 1v6a1 1 0 0 0 1 1h6a1 1 0 0 0 1-1v-6a1 1 0 0 0 -1-1zm-1 6h-4v-4h4z"></path><path d="m48 42.62a2.1923 2.1923 0 0 1 2.19 2.19 1 1 0 0 0 2 0 4.1869 4.1869 0 0 0 -3.19-4.0559v-1.5363a1 1 0 0 0 -2 0v1.5363a4.1827 4.1827 0 0 0 1 8.2459 2.19 2.19 0 1 1 -2.19 2.19 1 1 0 0 0 -2 0 4.1869 4.1869 0 0 0 3.19 4.0559v1.5363a1 1 0 0 0 2 0v-1.5363a4.1827 4.1827 0 0 0 -1-8.2459 2.19 2.19 0 0 1 0-4.38z"></path><path d="m48 34a13.9369 13.9369 0 0 0 -3.3335.4178v-29.4178a3.0033 3.0033 0 0 0 -3-3h-36.6665a3.0033 3.0033 0 0 0 -3 3v54a3.0033 3.0033 0 0 0 3 3h36.6665a2.9922 2.9922 0 0 0 1.9359-.7181 13.996 13.996 0 1 0 4.3976-27.2819zm-43 26a1.0009 1.0009 0 0 1 -1-1v-54a1.0013 1.0013 0 0 1 1-1h36.6665a1.0013 1.0013 0 0 1 1 1v30.0613a14.027 14.027 0 0 0 -4.3149 2.82.9937.9937 0 0 0 -.8931-.5685h-6a1 1 0 0 0 -1 1v6a1 1 0 0 0 1 1h2.8065a14.0044 14.0044 0 0 0 -.2555 2.5h-2.551a1 1 0 0 0 -1 1v6a1 1 0 0 0 1 1h4.93a14.0979 14.0979 0 0 0 4.4376 4.1872zm29.131-10.1875a13.8674 13.8674 0 0 0 1.1486 4h-2.8211v-4zm2.3275-9.7205a13.9655 13.9655 0 0 0 -1.6341 3.2205h-2.3659v-4h4zm11.5415 19.908a12 12 0 1 1 12-12 12.0134 12.0134 0 0 1 -12 12z"></path><path d="m50.897 13.707 1.293-1.2929v16.2109a1 1 0 0 0 2 0v-16.2109l1.3765 1.3764a1 1 0 0 0 1.4141-1.414l-3.0836-3.0835a1 1 0 0 0 -1.4141 0l-3 3a1 1 0 1 0 1.4141 1.414z"></path></g></svg>