<svg xmlns="http://www.w3.org/2000/svg" height="511pt" viewBox="1 -31 511.9995 511" width="511pt"><path d="m105 180.5h92c8.285156 0 15-6.714844 15-15s-6.714844-15-15-15h-92c-8.285156 0-15 6.714844-15 15s6.714844 15 15 15zm0 0"></path><path d="m105 240.5h92c8.285156 0 15-6.714844 15-15s-6.714844-15-15-15h-92c-8.285156 0-15 6.714844-15 15s6.714844 15 15 15zm0 0"></path><path d="m227 420.5c25.640625 0 50.726562-3.691406 74.660156-10.980469l99.769532 39.910157c5.0625 2.023437 10.78125 1.132812 14.976562-2.242188 4.222656-3.398438 6.28125-8.808594 5.390625-14.152344l-15.03125-90.1875c29.226563-33.636718 45.234375-75.027344 45.234375-117.347656 0-27.988281-6.988281-55.78125-20.292969-81.066406l75.898438-75.902344c5.859375-5.855469 5.859375-15.351562 0-21.210938l-42.425781-42.425781c-2.8125-2.816406-6.628907-4.394531-10.605469-4.394531-3.976563 0-7.792969 1.578125-10.605469 4.394531l-71.671875 71.671875c-40.582031-29.789062-91.625-46.066406-145.296875-46.066406-118.222656 0-227 82.0625-227 195 0 113.488281 109.449219 195 227 195zm46.757812-194.75 12.992188 12.992188-25.988281 12.996093zm38.316407-4.109375-21.214844-21.214844 93.132813-93.132812 28.15625-28.152344 21.210937 21.210937zm142.5-184.929687 21.210937 21.214843-21.210937 21.214844-21.214844-21.214844zm-227.574219 23.789062c45.632812 0 88.964844 13.246094 123.796875 37.566406l-91.757813 91.753906c-1.160156 1.160157-2.203124 2.6875-2.808593 3.898438l-38.390625 76.78125h-112.839844c-8.285156 0-15 6.714844-15 15s6.714844 15 15 15h122c2.996094 0 5.777344-.886719 8.121094-2.398438l83.660156-41.832031c1.242188-.621093 2.742188-1.65625 3.898438-2.8125l86.621093-86.621093c8.425781 18.636718 12.699219 38.292968 12.699219 58.664062 0 37.578125-14.578125 72.992188-42.164062 102.414062-3.195313 3.410157-4.621094 8.113282-3.855469 12.726563l11.839843 71.03125-80-32c-3.277343-1.308594-6.910156-1.421875-10.261718-.320313-22.480469 7.398438-46.21875 11.148438-70.558594 11.148438-108.625 0-197-74.019531-197-165s88.375-165 197-165zm0 0"></path></svg>