<svg xmlns="http://www.w3.org/2000/svg" id="Capa_1" height="512" viewBox="0 0 386.244 386.244" width="512"><g><g id="Design_13_"><path d="m46.976 135.707h125.268c2.897 0 5.22-2.323 5.22-5.22s-2.323-5.22-5.22-5.22h-125.268c-2.897 0-5.22 2.323-5.22 5.22 0 2.898 2.323 5.22 5.22 5.22z"></path><path d="m46.976 198.341h41.756c2.897 0 5.22-2.323 5.22-5.219 0-2.897-2.323-5.22-5.22-5.22h-41.756c-2.897 0-5.22 2.323-5.22 5.22s2.323 5.219 5.22 5.219z"></path><path d="m172.244 229.659h-41.756c-2.897 0-5.22 2.323-5.22 5.22s2.323 5.22 5.22 5.22h41.756c2.897 0 5.22-2.323 5.22-5.22s-2.323-5.22-5.22-5.22z"></path><path d="m88.732 229.659h-41.756c-2.897 0-5.22 2.323-5.22 5.22s2.323 5.22 5.22 5.22h41.756c2.897 0 5.22-2.323 5.22-5.22s-2.323-5.22-5.22-5.22z"></path><path d="m26.098 386.244h334.049c14.406 0 26.098-11.692 26.098-26.098v-292.292-41.756c-.001-14.406-11.693-26.098-26.099-26.098h-334.048c-14.406 0-26.098 11.692-26.098 26.098v41.756 292.293c0 14.405 11.692 26.097 26.098 26.097zm334.048-10.439h-334.048c-8.638 0-15.659-7.02-15.659-15.659v-271.962c4.41 3.393 9.682 5.768 15.659 5.768h268.466c-2.062 1.461-3.889 3.288-5.246 5.637l-97.918 169.608c-.052.078 0 .183-.026.287-.313.626-.6 1.279-.652 2.009l-2.505 41.678h-141.241c-2.897 0-5.22 2.323-5.22 5.22s2.323 5.22 5.22 5.22h146.146c.992 0 2.009-.287 2.871-.861l38.964-25.732c.418-.287.652-.705.992-1.096.209-.235.496-.365.652-.652l97.918-169.608c2.427-4.202 3.053-9.082 1.801-13.78-1.253-4.698-4.254-8.612-8.456-11.013l-11.979-6.916h44.261c5.976 0 11.248-2.375 15.659-5.768v271.963c0 8.637-7.02 15.657-15.659 15.657zm-137.977-82.834-23.201 15.319 1.67-27.742zm8.011-7.412-13.571-7.829-13.571-7.829 78.293-135.603 27.141 15.659zm83.513-144.658-27.141-15.659 11.796-20.434c2.14-3.68 6.838-4.985 10.57-2.845l13.753 7.96c3.68 2.114 4.959 6.864 2.845 10.543zm-303.254-114.803c0-8.638 7.02-15.659 15.659-15.659h334.049c8.638 0 15.659 7.02 15.659 15.659v41.756c0 8.638-7.02 15.659-15.659 15.659h-334.049c-8.638 0-15.659-7.02-15.659-15.659z"></path><path d="m46.976 73.073c14.406 0 26.098-11.692 26.098-26.098s-11.693-26.097-26.098-26.097-26.098 11.692-26.098 26.098 11.692 26.097 26.098 26.097zm0-41.756c8.638 0 15.659 7.02 15.659 15.659s-7.02 15.659-15.659 15.659-15.659-7.02-15.659-15.659 7.02-15.659 15.659-15.659z"></path><path d="m109.61 73.073c14.406 0 26.098-11.692 26.098-26.098s-11.692-26.098-26.098-26.098-26.098 11.693-26.098 26.099 11.692 26.097 26.098 26.097zm0-41.756c8.638 0 15.659 7.02 15.659 15.659s-7.02 15.659-15.659 15.659c-8.638 0-15.659-7.02-15.659-15.659s7.02-15.659 15.659-15.659z"></path><path d="m172.244 73.073c14.406 0 26.098-11.692 26.098-26.098s-11.692-26.098-26.098-26.098-26.098 11.692-26.098 26.098 11.692 26.098 26.098 26.098zm0-41.756c8.638 0 15.659 7.02 15.659 15.659s-7.02 15.659-15.659 15.659-15.659-7.02-15.659-15.659 7.021-15.659 15.659-15.659z"></path><path d="m46.976 281.854h104.39c2.897 0 5.22-2.323 5.22-5.219 0-2.897-2.323-5.22-5.22-5.22h-104.39c-2.897 0-5.22 2.323-5.22 5.22 0 2.896 2.323 5.219 5.22 5.219z"></path></g></g></svg>