<svg xmlns="http://www.w3.org/2000/svg" id="Icons" viewBox="0 0 60 60" width="512" height="512"><path d="M2.975,53.014c2.106.012,5.354.031,7,.031.043,0,.078,0,.126,0a4.976,4.976,0,0,1,1.523.241L31.711,59.76a5,5,0,0,0,4.553-.778L58.719,41.925a3.309,3.309,0,0,0,.45-4.807l-.034-.039a3.278,3.278,0,0,0-4.228-.552l-.983.623c.045-.459.076-.921.076-1.39,0-5.788-3.906-12.8-8.986-16.552a2.972,2.972,0,0,0-.672-4.877l1.94-6.837A3.525,3.525,0,0,0,42.9,3H41.585a5,5,0,0,0-9.17,0H31.1a3.525,3.525,0,0,0-3.382,4.492l1.94,6.839a2.972,2.972,0,0,0-.672,4.877C24.115,22.8,20.337,29.4,20.033,35.034a5.979,5.979,0,0,0-3.232.66l-4.937,2.7A5.007,5.007,0,0,1,9.47,39H3a3,3,0,0,0-3,3v8.014A3.006,3.006,0,0,0,2.975,53.014ZM31,18a1,1,0,0,1,0-2H43a1,1,0,0,1,0,2ZM29.892,5.6A1.505,1.505,0,0,1,31.1,5H32V9a1,1,0,0,0,2,0V5a3.03,3.03,0,0,1,.095-.753.134.134,0,0,1,0-.02c0-.012.01-.021.012-.033a3,3,0,0,1,5.777-.021c0,.019.015.034.019.053s0,.014,0,.021A3.03,3.03,0,0,1,40,5V9a1,1,0,0,0,2,0V5h.9a1.525,1.525,0,0,1,1.458,1.947l-2,7.053H31.642l-2-7.055A1.517,1.517,0,0,1,29.892,5.6ZM31.4,20h11.21C47.718,23.032,52,30.181,52,35.76a11.7,11.7,0,0,1-.361,2.837L46.29,41.983a3.664,3.664,0,0,0-3.111-3.321l-1.218-.193c.014-.156.039-.308.039-.469a5.009,5.009,0,0,0-4-4.9V27.184A3,3,0,0,1,40,30a1,1,0,0,0,2,0,5.009,5.009,0,0,0-4-4.9V25a1,1,0,0,0-2,0v.1a5,5,0,0,0,0,9.8v2.625L22.021,35.309C22.24,29.8,26.417,22.952,31.4,20ZM36,32.816a2.982,2.982,0,0,1,0-5.632Zm2,2.368A3,3,0,0,1,40,38c0,.055-.01.1-.012.156L38,37.841ZM2,42a1,1,0,0,1,1-1H9.47a7.025,7.025,0,0,0,3.353-.855l4.922-2.687a4,4,0,0,1,2.458-.413l22.668,3.593A1.691,1.691,0,0,1,42.614,44H23a1,1,0,0,0,0,2h4.664l5.914,4.493a2.485,2.485,0,0,0,2.821.119l19.589-12.4a1.29,1.29,0,0,1,1.647.192.347.347,0,0,0,.025.029,1.31,1.31,0,0,1-.158,1.908L35.055,57.39a3,3,0,0,1-2.731.465l-20.09-6.473h0a6.955,6.955,0,0,0-2.133-.337h-.011c-1.576-.014-4.947-.019-7.1-.031a1,1,0,0,1-.987-1Zm37.945,4-4.616,2.923a.483.483,0,0,1-.543-.023L30.97,46Z"></path></svg>