<svg xmlns="http://www.w3.org/2000/svg" id="Content_management" height="512" viewBox="0 0 128 128" width="512"><g id="_x3C_Group_x3E_"><path id="_x31_1" d="m48.421 89.025c0-1.104.893-2.002 1.997-2.002s2.001.896 2.001 2.002v17.309c0 1.691-.688 3.227-1.803 4.336-.041.046-.082.083-.129.12-1.1 1.04-2.584 1.683-4.207 1.683h-40.12c-1.692 0-3.227-.688-4.336-1.803-1.114-1.109-1.803-2.645-1.803-4.336v-30.563c0-1.691.688-3.228 1.803-4.336 1.109-1.113 2.644-1.804 4.336-1.804h24.209c1.104 0 2.001.896 2.001 2.002 0 1.101-.896 1.997-2.001 1.997h-24.209c-.587 0-1.124.24-1.512.628-.384.39-.629.925-.629 1.513v30.563c0 .586.245 1.123.629 1.512.388.389.924.629 1.512.629h40.12c.551 0 1.059-.214 1.438-.556.022-.028.046-.052.069-.073.388-.389.633-.926.633-1.513z"></path><path id="_x31_0" d="m31.423 48.836c1.104 0 2.002.896 2.002 2.001s-.897 1.997-2.002 1.997c-1.983 0-3.786-.809-5.09-2.113-1.303-1.303-2.112-3.105-2.112-5.089v-38.43c0-1.982.809-3.781 2.112-5.089 1.304-1.303 3.106-2.113 5.09-2.113h65.195c1.981 0 3.78.809 5.09 2.113 1.303 1.308 2.112 3.106 2.112 5.089v38.43c0 1.983-.811 3.786-2.112 5.089-1.31 1.305-3.106 2.113-5.09 2.113-1.104 0-2.002-.893-2.002-1.997s.896-2.001 2.002-2.001c.878 0 1.678-.361 2.26-.943.583-.578.942-1.383.942-2.261v-38.43c0-.878-.359-1.678-.942-2.26-.582-.583-1.382-.943-2.26-.943h-65.195c-.879 0-1.678.36-2.261.943-.582.582-.942 1.382-.942 2.26v38.43c0 .878.36 1.683.942 2.261.583.582 1.382.943 2.261.943z"></path><path id="_x39_" d="m41.528 8.048c2.187 0 4.17.888 5.604 2.321.041.041.078.083.115.129 1.368 1.424 2.209 3.356 2.209 5.479 0 2.187-.887 4.169-2.324 5.603-1.434 1.438-3.417 2.325-5.604 2.325-2.182 0-4.165-.893-5.603-2.33l-.005.005c-1.434-1.434-2.32-3.416-2.32-5.603 0-2.183.887-4.165 2.325-5.604l-.005-.004c1.438-1.433 3.417-2.321 5.608-2.321zm2.779 5.15c-.712-.707-1.696-1.151-2.778-1.151-1.086 0-2.066.443-2.778 1.151l-.005-.005-.004.005c-.703.707-1.143 1.687-1.143 2.778 0 1.081.444 2.066 1.152 2.778h-.005l.005.004c.707.707 1.687 1.143 2.777 1.143 1.082 0 2.066-.439 2.779-1.146.707-.712 1.146-1.697 1.146-2.778 0-1.05-.402-1.997-1.059-2.695-.032-.028-.059-.056-.087-.084z"></path><path id="_x38_" d="m70.818 43.681c1.367.458 2.677 1.05 3.906 1.761 1.248.722 2.418 1.568 3.488 2.516l5.512-2.006c.924-.334 1.933.055 2.402.878l.006-.005 1.904 3.306c.021.037.041.074.061.11l1.848 3.199c.486.852.277 1.914-.446 2.52v.005l-4.483 3.763c.096.485.18.98.243 1.484.125.947.187 1.881.187 2.787 0 .911-.062 1.844-.187 2.793-.063.504-.147.998-.243 1.479l4.483 3.768c.774.646.935 1.762.411 2.594l-1.872 3.24-1.904 3.301c-.504.869-1.563 1.217-2.469.855l-5.451-1.983c-1.071.948-2.241 1.794-3.489 2.515-1.229.713-2.537 1.306-3.906 1.763l-1.017 5.765c-.166.971-1.014 1.655-1.965 1.655h-3.814-3.818c-1.012 0-1.849-.754-1.982-1.734l-.999-5.686c-1.368-.457-2.677-1.05-3.906-1.763-1.248-.721-2.417-1.565-3.489-2.515l-5.511 2.007c-.925.332-1.933-.057-2.408-.879l-1.905-3.301-1.908-3.305c-.495-.853-.287-1.92.447-2.529h-.004l4.488-3.768c-.097-.484-.18-.976-.244-1.479-.125-.946-.189-1.882-.189-2.793 0-.905.064-1.84.189-2.787.064-.504.147-.998.244-1.484l-4.488-3.762c-.771-.647-.929-1.762-.406-2.594l1.872-3.24 1.904-3.306c.504-.864 1.563-1.212 2.464-.851l5.455 1.982c1.072-.947 2.242-1.793 3.49-2.515 1.229-.712 2.538-1.304 3.906-1.761l1.012-5.766c.172-.971 1.018-1.654 1.97-1.654h3.813 3.818c1.014 0 1.85.754 1.979 1.733zm1.911 5.215c-1.271-.735-2.648-1.313-4.105-1.711-.762-.175-1.382-.786-1.525-1.604l-.938-5.32h-2.141-2.137l-.938 5.32c-.129.74-.676 1.379-1.452 1.586-1.483.398-2.884.984-4.179 1.729-1.309.759-2.51 1.679-3.574 2.732-.531.555-1.354.777-2.121.5l-5.09-1.854-1.072 1.858-1.068 1.85 4.143 3.477c.573.48.851 1.266.646 2.038-.193.735-.346 1.483-.443 2.233-.093.707-.139 1.465-.139 2.27 0 .809.046 1.566.139 2.273.098.722.236 1.442.42 2.149.232.748.01 1.591-.623 2.121l-4.143 3.478 1.068 1.85 1.072 1.857 5.09-1.854c.702-.254 1.521-.103 2.084.463 1.073 1.067 2.289 2.002 3.611 2.769 1.271.73 2.648 1.313 4.104 1.711.763.172 1.382.787 1.525 1.604l.938 5.321h2.141 2.135l.935-5.321h.005c.129-.738.676-1.378 1.451-1.585 1.484-.397 2.885-.983 4.176-1.729 1.313-.758 2.514-1.679 3.577-2.736.532-.551 1.354-.771 2.122-.495l5.09 1.854 1.072-1.857 1.066-1.85-4.142-3.478c-.573-.479-.852-1.267-.647-2.038.195-.734.348-1.479.445-2.229.092-.713.139-1.471.139-2.278 0-.805-.047-1.563-.139-2.27-.099-.722-.236-1.443-.427-2.154-.228-.744-.004-1.586.629-2.117l4.146-3.481-1.008-1.743c-.022-.032-.041-.068-.063-.102l-1.072-1.858-5.09 1.854c-.703.254-1.521.102-2.085-.463-1.071-1.069-2.287-2.004-3.608-2.77zm-8.71 2.856c3.383 0 6.443 1.373 8.663 3.588 2.215 2.214 3.588 5.279 3.588 8.658 0 3.384-1.373 6.443-3.588 8.663-2.22 2.214-5.279 3.587-8.663 3.587-3.379 0-6.444-1.373-8.658-3.587-2.215-2.22-3.588-5.279-3.588-8.663 0-3.379 1.373-6.444 3.588-8.658 2.213-2.215 5.279-3.588 8.658-3.588zm5.835 6.416c-1.494-1.492-3.556-2.417-5.834-2.417-2.275 0-4.336.925-5.83 2.417-1.492 1.488-2.417 3.556-2.417 5.83 0 2.279.925 4.34 2.417 5.834 1.488 1.493 3.556 2.418 5.83 2.418 2.279 0 4.34-.925 5.834-2.418 1.492-1.494 2.418-3.555 2.418-5.834-.001-2.275-.926-4.336-2.418-5.83z"></path><path id="_x37_" d="m101.775 109.02c.806-.754 2.066-.717 2.82.088.754.8.717 2.062-.084 2.819-5.381 5.071-11.723 9.144-18.722 11.923-6.754 2.676-14.101 4.15-21.772 4.15-7.67 0-15.02-1.475-21.77-4.15-6.998-2.779-13.342-6.852-18.723-11.923-.799-.759-.841-2.021-.082-2.819.753-.805 2.016-.842 2.819-.088 5.024 4.738 10.938 8.537 17.456 11.127 6.268 2.486 13.115 3.851 20.299 3.851 7.188 0 14.035-1.363 20.303-3.851 6.521-2.588 12.433-6.389 17.456-11.127zm-92.764-37.473c.046 1.1-.809 2.029-1.909 2.08-1.1.047-2.029-.809-2.076-1.909-.023-.421-.037-.878-.051-1.387-.014-.656-.023-1.138-.023-1.399 0-8.632 1.854-16.838 5.192-24.238 3.458-7.679 8.52-14.488 14.755-20.003.823-.73 2.086-.652 2.812.171.73.823.651 2.085-.171 2.811-5.807 5.141-10.522 11.492-13.753 18.662-3.106 6.889-4.835 14.539-4.835 22.599 0 .642.004 1.065.009 1.308.009.391.027.828.05 1.305zm91.49-43.875c-.821-.726-.901-1.987-.172-2.811.728-.823 1.987-.901 2.812-.172 6.236 5.516 11.295 12.324 14.756 20.004 3.334 7.4 5.192 15.605 5.192 24.237 0 .264-.01.743-.022 1.4-.015.509-.033.966-.051 1.387-.048 1.102-.978 1.956-2.076 1.909-1.101-.051-1.955-.979-1.91-2.08.022-.478.043-.916.053-1.31.004-.239.008-.666.008-1.309 0-8.057-1.729-15.707-4.835-22.596-3.235-7.167-7.947-13.519-13.755-18.659z"></path><path id="_x36_" d="m100.747 84.505c-1.104 0-2.002-.894-2.002-1.997 0-1.105.896-2.002 2.002-2.002h14.819c1.104 0 2.002.896 2.002 2.002 0 1.104-.896 1.997-2.002 1.997z"></path><path id="_x35_" d="m89.753 93.131c-1.104 0-1.997-.896-1.997-2.002 0-1.104.893-1.997 1.997-1.997h25.813c1.104 0 2.002.894 2.002 1.997 0 1.105-.897 2.002-2.002 2.002z"></path><path id="_x34_" d="m89.753 101.757c-1.104 0-1.997-.896-1.997-2.001s.893-2.002 1.997-2.002h25.813c1.104 0 2.002.896 2.002 2.002 0 1.104-.897 2.001-2.002 2.001z"></path><path id="_x33_" d="m19.88 78.343 18.158 11.007c.938.568 1.238 1.793.67 2.736-.18.297-.425.527-.702.689l-18.292 11.084c-.938.568-2.164.269-2.732-.67-.194-.323-.286-.681-.286-1.031h-.009v-22.213c0-1.104.892-1.996 1.997-1.996.448 0 .864.149 1.196.394zm13.286 12.708-12.481-7.563v15.129z"></path><path id="_x32_" d="m102.945 34.172c.912.619 1.144 1.863.522 2.773-.618.911-1.862 1.146-2.774.523l-28.978-19.878-43.986 29.299c-.92.611-2.16.356-2.766-.559-.609-.92-.359-2.159.561-2.77l45.063-30.016c.661-.457 1.563-.489 2.271-.009z"></path><path id="_x31_" d="m75.622 89.025c0-1.104.896-2.002 2.001-2.002s1.997.896 1.997 2.002v17.309c0 .586.245 1.123.629 1.512.026.022.051.045.074.074.379.342.883.555 1.438.555h40.12c.587 0 1.119-.24 1.507-.629.389-.389.635-.925.635-1.512v-30.563c0-.586-.246-1.123-.635-1.512-.388-.388-.92-.628-1.507-.628h-24.208c-1.104 0-2.002-.897-2.002-1.998 0-1.104.896-2.002 2.002-2.002h24.209c1.691 0 3.228.688 4.336 1.804 1.115 1.108 1.804 2.645 1.804 4.336v30.563c0 1.691-.688 3.227-1.804 4.336-1.108 1.114-2.645 1.803-4.336 1.803h-40.12c-1.623 0-3.107-.643-4.207-1.683-.047-.037-.089-.073-.13-.12-1.114-1.109-1.803-2.645-1.803-4.336z"></path></g></svg>