<svg xmlns="http://www.w3.org/2000/svg" id="Layer_1" height="512" viewBox="0 0 480 480" width="512"><g><path d="m344.763 408.491-3.465-1.192c2.714-4.126 4.736-8.661 5.983-13.432 48.334 12.948 95.724-23.548 95.759-73.453v-44.485c-.019-34.216-23.072-64.369-56.057-73.327-4.264-1.159-8.659 1.36-9.817 5.624-1.157 4.264 1.36 8.659 5.624 9.817 26.037 7.071 44.236 30.878 44.25 57.892v44.475c-.034 48.631-55.385 77.485-95.192 48.674-3.583-2.591-8.582-1.788-11.171 1.791-2.591 3.579-1.789 8.581 1.79 11.171 3.119 2.257 6.378 4.252 9.748 5.993-.994 5.097-3.345 9.86-6.815 13.793l-17.994-6.188c-5.192-1.786-9.876-4.599-13.918-8.359-3.235-3.01-8.297-2.827-11.307.409-3.01 3.235-2.826 8.297.408 11.306 1.773 1.649 3.643 3.153 5.586 4.54-16.893 27.764-53.021 33.656-78.041 17.535-3.713-2.394-8.665-1.322-11.058 2.391-2.394 3.714-1.323 8.665 2.392 11.058 33.045 21.295 79.779 12.565 100.992-23.661 3.268 1.124 28.648 9.853 37.098 12.759 15.815 5.439 26.44 20.33 26.44 37.054v11.324c0 4.418 3.582 8 8 8s8-3.582 8-8v-11.325c.002-23.552-14.963-44.524-37.235-52.184z"></path><path d="m178.797 410.773c18.525-6.371 32.057-22.075 35.988-40.748 58.533 16.336 116.786-26.758 119.135-87.042 13.269-3.464 23.08-15.414 23.08-29.587v-78.069c0-4.418-3.582-8-8-8s-8 3.582-8 8v78.069c0 5.075-2.831 9.634-7 12.261v-42.811c.019-27.467-22.254-49.828-49.654-49.847h-88.609c-27.553 0-49.746 22.267-49.765 49.719v56.453c.026 37.495 21.933 69.945 53.584 85.126-2.063 14.302-12.015 26.549-25.962 31.345l-18.759 6.451c-3.601-3.981-6.037-8.836-7.052-14.051 3.816-1.973 7.49-4.274 10.984-6.91 3.526-2.662 4.227-7.679 1.564-11.205-2.661-3.527-7.679-4.227-11.205-1.565-4.023 3.037-8.345 5.519-12.888 7.432-40.971 16.668-83.249-13.497-83.279-55.378v-44.479c.015-27.025 18.22-50.833 44.267-57.899 4.264-1.157 6.783-5.551 5.626-9.815-1.155-4.264-5.55-6.781-9.815-5.627-32.997 8.951-56.059 39.106-56.078 73.335v44.489c.021 29.732 17.168 55.517 42.064 68.014-2.026 9.953-9.219 18.367-19.057 21.75l-29.46 10.132c-18.246 6.276-30.506 23.457-30.506 42.753v8.931c0 4.418 3.582 8 8 8s8-3.582 8-8v-8.931c0-12.467 7.921-23.568 19.71-27.623l29.46-10.132c14.41-4.956 25.179-16.88 28.966-31.21 12.786 3.273 26.13 3.098 38.58-.233 1.275 4.881 3.36 9.511 6.167 13.709l-2.646.91c-22.272 7.661-37.237 28.633-37.237 52.185v11.325c0 4.418 3.582 8 8 8s8-3.582 8-8v-11.325c0-16.724 10.626-31.615 26.44-37.054 37.045-12.741-.333.115 37.357-12.848zm-16.825-131.599v-56.442c.012-18.625 15.062-33.732 33.758-33.732h88.609c18.573.013 33.673 15.191 33.66 33.836-.002 3.079.024-14.695 0 56.493-.015 43.081-35.06 78.129-78.088 78.129-42.961 0-77.909-35.124-77.939-78.284z"></path><path d="m150.101 138.934c-14.997 2.609-26.101 15.706-26.101 30.956v84.327c0 4.418 3.582 8 8 8s8-3.582 8-8v-84.277c0-8.531 6.967-15.472 15.53-15.472 3.269 0 6.209-1.989 7.426-5.023 9.363-23.355 31.712-38.445 56.935-38.445h46.399c4.418 0 8-3.582 8-8s-3.582-8-8-8h-46.399c-30.126 0-57.004 17.086-69.79 43.934z"></path><path d="m449.493 420.317-29.46-10.132c-4.175-1.438-8.729.785-10.167 4.963-1.437 4.178.785 8.73 4.964 10.167l29.46 10.132c11.789 4.055 19.71 15.155 19.71 27.623v8.93c0 4.418 3.582 8 8 8s8-3.582 8-8v-8.931c0-19.296-12.26-36.477-30.507-42.752z"></path><path d="m448 40h-131c-17.645 0-32 14.355-32 32v50c0 17.645 14.355 32 32 32h87.637c-.459 5.656-2.276 11.121-5.38 16.087-3.453 5.522.815 12.624 7.256 12.227 17.889-1.06 31.753-11.719 37.46-28.313h4.027c17.645 0 32-14.355 32-32v-50.001c0-17.645-14.355-32-32-32zm16 82c0 8.822-7.178 16-16 16h-10.135c-3.81 0-7.09 2.686-7.843 6.42-1.492 7.409-5.114 13.26-10.313 17.056 1.099-5.335 1.338-10.846.69-16.403-.471-4.033-3.887-7.074-7.946-7.074h-95.453c-8.822 0-16-7.178-16-16v-49.999c0-8.822 7.178-16 16-16h131c8.822 0 16 7.178 16 16z"></path><path d="m367.359 93.79c-2.924-6.685-12.095-6.435-14.779 0-2.193 5.366 1.775 11.07 7.39 11.07 5.659 0 9.562-5.755 7.389-11.07z"></path><path d="m416.39 93.79c-1.969-4.72-7.737-6.347-11.83-3.59-3.503 2.312-4.76 7.232-2.21 11.1 2.451 3.635 7.31 4.676 11.09 2.21 3.029-1.996 4.46-6.026 2.95-9.72z"></path><path d="m32 155h4.027c5.707 16.595 19.571 27.254 37.46 28.313 6.426.397 10.718-6.689 7.256-12.227-3.104-4.966-4.921-10.431-5.38-16.087h24.733c4.418 0 8-3.582 8-8s-3.582-8-8-8h-32.55c-4.06 0-7.476 3.041-7.946 7.074-.647 5.557-.408 11.068.69 16.403-5.198-3.796-8.82-9.647-10.313-17.056-.753-3.734-4.033-6.42-7.843-6.42h-10.134c-8.822 0-16-7.178-16-16v-91c0-8.822 7.178-16 16-16h131c8.822 0 16 7.178 16 16v39.664c0 4.418 3.582 8 8 8s8-3.582 8-8v-39.664c0-17.645-14.355-32-32-32h-131c-17.645 0-32 14.355-32 32v91c0 17.645 14.355 32 32 32z"></path><path d="m145 53c0-4.418-3.582-8-8-8h-79c-4.418 0-8 3.582-8 8s3.582 8 8 8h79c4.418 0 8-3.582 8-8z"></path><path d="m58 93c-4.418 0-8 3.582-8 8s3.582 8 8 8h39.5c4.418 0 8-3.582 8-8s-3.582-8-8-8z"></path></g></svg>