<svg xmlns="http://www.w3.org/2000/svg" height="480pt" viewBox="-16 0 480 480" width="480pt"><path d="m160 200v-176c0-13.601562-10.398438-24-24-24h-80c-13.601562 0-24 10.398438-24 24v176c0 13.601562 10.398438 24 24 24h80c13.601562 0 24-10.398438 24-24zm-16-24h-96v-128h96zm-88-160h80c4.800781 0 8 3.199219 8 8v8h-96v-8c0-4.800781 3.199219-8 8-8zm-8 184v-8h96v8c0 4.800781-3.199219 8-8 8h-80c-4.800781 0-8-3.199219-8-8zm0 0"></path><path d="m132.800781 112-60.800781-48.800781v97.601562zm-44.800781-15.199219 19.199219 15.199219-19.199219 15.199219zm0 0"></path><path d="m208 136c0-52.800781 43.199219-96 96-96 22.398438 0 44.800781 8 62.398438 22.398438l-17.597657 17.601562c-31.199219-24.800781-76-20-100.800781 11.199219-10.398438 12.800781-16 28.800781-16 44.800781h16c0-31.199219 24.800781-56 56-56 12 0 24 4 33.601562 11.199219l-17.601562 17.601562c-4.800781-3.199219-10.398438-4.800781-16-4.800781-17.601562 0-32 14.398438-32 32h16c0-8.800781 7.199219-16 16-16 1.601562 0 2.398438 0 4 .800781l-9.601562 9.597657 11.203124 11.203124 9.597657-9.601562c0 1.601562.800781 2.398438.800781 4 0 8.800781-7.199219 16-16 16v16c17.601562 0 32-14.398438 32-32 0-5.601562-1.601562-11.199219-4.800781-16l17.601562-17.601562c18.398438 24.800781 13.597657 60-11.199219 78.402343-9.601562 7.199219-21.601562 11.199219-33.601562 11.199219v16c40 0 72-32 72-72 0-16-5.601562-32-16-44.800781l16.800781-16.800781c34.398438 40 29.597657 100.800781-11.199219 135.203124-16.800781 14.398438-39.203124 22.398438-61.601562 22.398438v16c61.601562 0 112-49.601562 112-112 0-27.199219-9.601562-52.800781-27.199219-73.601562l14.398438-14.398438h36.800781v-16h-32v-32h-16v36.800781l-14.398438 14.398438c-47.203124-40-117.601562-35.199219-158.402343 11.199219-17.597657 20.800781-27.199219 46.402343-27.199219 73.601562zm0 0"></path><path d="m376 296h-70.398438l-152-56h-17.601562c-13.601562 0-24 10.398438-24 24v160c0 13.601562 10.398438 24 24 24h17.601562l152-64h22.398438v72c0 13.601562 10.398438 24 24 24s24-10.398438 24-24v-72c13.601562 0 24-10.398438 24-24v-40c0-13.601562-10.398438-24-24-24zm-216-36.800781 136 50.402343v60.796876l-136 57.601562zm-32 164.800781v-160c0-4.800781 3.199219-8 8-8h8v176h-8c-4.800781 0-8-3.199219-8-8zm232 32c0 4.800781-3.199219 8-8 8s-8-3.199219-8-8v-72h16zm24-96c0 4.800781-3.199219 8-8 8h-64v-56h64c4.800781 0 8 3.199219 8 8zm0 0"></path><path d="m64 328h32v16h-32zm0 0"></path><path d="m66.460938 269.777344 11.3125-11.316406 23.761718 23.761718-11.316406 11.3125zm0 0"></path><path d="m66.460938 402.222656 23.757812-23.761718 11.3125 11.316406-23.757812 23.757812zm0 0"></path><path d="m192 152.800781v8c0 48 39.199219 87.199219 87.199219 87.199219h8.800781v-96h-88zm80 15.199219v64c-33.601562-3.199219-60-30.398438-63.199219-64zm0 0"></path><path d="m176 24h48v16h-48zm0 0"></path><path d="m432 168v152c0 4.800781-3.199219 8-8 8h-8v16h8c13.601562 0 24-10.398438 24-24v-152zm0 0"></path><path d="m16 320v-152h-16v152c0 13.601562 10.398438 24 24 24h24v-16h-24c-4.800781 0-8-3.199219-8-8zm0 0"></path></svg>