<svg xmlns="http://www.w3.org/2000/svg" height="512pt" viewBox="0 0 512.002 512" width="512pt"><path d="m256 268.449219c20.429688 0 37.050781-16.621094 37.050781-37.046875 0-20.429688-16.621093-37.046875-37.050781-37.046875s-37.046875 16.617187-37.046875 37.046875c0 20.425781 16.617187 37.046875 37.046875 37.046875zm0-59.09375c12.160156 0 22.050781 9.890625 22.050781 22.046875s-9.890625 22.046875-22.050781 22.046875c-12.15625 0-22.050781-9.890625-22.050781-22.046875s9.890625-22.046875 22.050781-22.046875zm0 0"></path><path d="m406.292969 61.390625c0 15.214844 12.378906 27.59375 27.597656 27.59375 15.214844 0 27.597656-12.378906 27.597656-27.59375 0-15.21875-12.382812-27.597656-27.597656-27.597656-15.21875 0-27.597656 12.378906-27.597656 27.597656zm40.195312 0c0 6.945313-5.652343 12.59375-12.597656 12.59375s-12.597656-5.648437-12.597656-12.59375 5.652343-12.597656 12.597656-12.597656 12.597656 5.648437 12.597656 12.597656zm0 0"></path><path d="m78.109375 88.984375c15.21875 0 27.597656-12.378906 27.597656-27.59375 0-15.21875-12.378906-27.597656-27.597656-27.597656-15.214844 0-27.597656 12.378906-27.597656 27.59375 0 15.21875 12.382812 27.597656 27.597656 27.597656zm0-40.191406c6.945313 0 12.597656 5.648437 12.597656 12.59375 0 6.945312-5.652343 12.597656-12.597656 12.597656s-12.597656-5.652344-12.597656-12.597656c0-6.945313 5.652343-12.59375 12.597656-12.59375zm0 0"></path><path d="m433.890625 355.75c-19.136719 0-36.675781 6.929688-50.269531 18.390625l-44.167969-44.578125c17.332031-19.632812 27.867187-45.398438 27.867187-73.582031 0-27.808594-10.25-53.269531-27.171874-72.796875l44.738281-44.316406c13.410156 10.835937 30.457031 17.34375 49.003906 17.34375 30.164063 0 57.9375-17.652344 70.753906-44.972657 1.757813-3.75.144531-8.214843-3.605469-9.976562-3.75-1.757813-8.214843-.144531-9.976562 3.605469-4.929688 10.515624-12.609375 19.253906-21.929688 25.527343-3.96875-21.414062-18.03125-36.824219-35.242187-36.824219-17.21875 0-31.285156 15.425782-35.246094 36.855469-16.796875-11.347656-27.863281-30.566406-27.863281-52.320312 0-34.796875 28.3125-63.105469 63.109375-63.105469 34.800781 0 63.113281 28.308594 63.113281 63.105469 0 4.140625 3.355469 7.5 7.5 7.5 4.140625 0 7.5-3.359375 7.5-7.5 0-43.066407-35.042968-78.105469-78.113281-78.105469-43.066406 0-78.109375 35.039062-78.109375 78.105469 0 19.132812 6.925781 36.667969 18.390625 50.265625l-44.582031 44.160156c-19.632813-17.332031-45.402344-27.863281-73.589844-27.863281-22.878906 0-44.859375 6.886719-63.566406 19.921875-3.234375 2.25-6.320313 4.664062-9.269532 7.210937l-44.285156-44.703125c10.835938-13.410156 17.339844-30.453125 17.339844-48.992187 0-43.066407-35.039062-78.105469-78.109375-78.105469s-78.109375 35.039062-78.109375 78.105469c0 43.066406 35.039062 78.101562 78.109375 78.101562 19.136719 0 36.675781-6.925781 50.273437-18.390625l44.121094 44.539063c-8.628906 9.765625-15.511718 20.996093-20.296875 33.308593-1.5 3.859376.410157 8.207032 4.273438 9.707032 3.859375 1.5 8.207031-.410156 9.707031-4.273438 4.90625-12.621094 12.351562-23.933594 21.859375-33.378906.054687-.054688.117187-.101562.171875-.15625.042969-.039062.078125-.085938.121094-.128906 3.890625-3.835938 8.117187-7.367188 12.664062-10.535156 16.179688-11.273438 35.199219-17.230469 54.996094-17.230469 53.113281 0 96.324219 43.207031 96.324219 96.3125 0 35.171875-18.953125 65.996093-47.183594 82.808593-1.710937-13.242187-6.160156-25.484374-12.960937-35.320312-9.457032-13.683594-22.304688-21.21875-36.179688-21.21875-13.871094 0-26.71875 7.535156-36.175781 21.21875-6.800781 9.835938-11.25 22.078125-12.960938 35.320312-28.230469-16.8125-47.183593-47.636718-47.183593-82.808593 0-4.140625-3.359376-7.5-7.5-7.5-4.140626 0-7.5 3.359375-7.5 7.5 0 27.808593 10.25 53.269531 27.171874 72.800781l-44.738281 44.316406c-13.410156-10.835937-30.457031-17.34375-49-17.34375-43.074219-.003906-78.113281 35.035156-78.113281 78.101563 0 4.140625 3.359375 7.5 7.5 7.5s7.5-3.359375 7.5-7.5c0-34.796875 28.308594-63.105469 63.109375-63.105469s63.109375 28.308594 63.109375 63.105469c0 21.753906-11.0625 40.972656-27.863281 52.324219-3.960938-21.429688-18.027344-36.859376-35.246094-36.859376-17.214844 0-31.277344 15.421876-35.242187 36.847657-9.53125-6.417969-17.335938-15.414063-22.265626-26.273438-1.710937-3.773437-6.152343-5.441406-9.925781-3.730469-3.773437 1.710938-5.441406 6.152344-3.730469 9.925782 12.640626 27.867187 40.574219 45.871094 71.164063 45.871094 43.070313 0 78.109375-35.039063 78.109375-78.105469 0-19.132813-6.925781-36.667969-18.386719-50.265625l44.582031-44.160156c19.632813 17.332031 45.398438 27.863281 73.585938 27.863281 27.8125 0 53.273438-10.25 72.804688-27.167969l44.320312 44.734375c-10.835938 13.410156-17.34375 30.453125-17.34375 48.996094 0 43.066406 35.039062 78.105469 78.109375 78.105469s78.109375-35.039063 78.109375-78.105469c0-43.066407-35.039062-78.105469-78.109375-78.105469zm-418.890625-277.644531c0-34.796875 28.308594-63.105469 63.109375-63.105469s63.109375 28.308594 63.109375 63.105469c0 16.621093-6.46875 31.75-17.007812 43.03125-.355469.25-.695313.523437-1.011719.839843-.371094.371094-.695313.773438-.96875 1.191407-2.730469 2.675781-5.695313 5.113281-8.875 7.257812-3.960938-21.425781-18.027344-36.855469-35.246094-36.855469s-31.285156 15.425782-35.246094 36.855469c-16.796875-11.347656-27.863281-30.566406-27.863281-52.320312zm42.007812 59.464843c1.632813-16.179687 10.632813-29 21.101563-29s19.46875 12.820313 21.101563 29c-6.601563 2.347657-13.703126 3.640626-21.101563 3.640626s-14.496094-1.292969-21.101563-3.640626zm376.882813-29c10.460937 0 19.457031 12.804688 21.097656 28.96875-6.679687 2.382813-13.800781 3.671876-21.097656 3.671876-7.398437 0-14.5-1.292969-21.101563-3.640626 1.632813-16.179687 10.632813-29 21.101563-29zm-376.878906 384.734376c1.636719-16.171876 10.632812-28.984376 21.097656-28.984376 10.46875 0 19.46875 12.820313 21.101563 29-6.601563 2.347657-13.703126 3.640626-21.101563 3.640626-7.308594 0-14.425781-1.28125-21.097656-3.65625zm164.226562-147.503907c1.804688-26.816406 16.988281-48.554687 34.761719-48.554687s32.960938 21.738281 34.761719 48.554687c-10.789063 4.191407-22.507813 6.492188-34.761719 6.492188-12.25 0-23.972656-2.300781-34.761719-6.492188zm191.550781 147.519531c1.632813-16.179687 10.632813-29 21.101563-29s19.46875 12.820313 21.101563 29c-6.605469 2.347657-13.703126 3.640626-21.101563 3.640626s-14.5-1.289063-21.101563-3.640626zm56.347657-7.140624c-3.960938-21.429688-18.027344-36.859376-35.246094-36.859376s-31.285156 15.429688-35.246094 36.859376c-16.800781-11.351563-27.863281-30.570313-27.863281-52.324219 0-34.796875 28.308594-63.105469 63.109375-63.105469s63.113281 28.308594 63.113281 63.105469c-.003906 21.753906-11.070312 40.972656-27.867187 52.324219zm0 0"></path><path d="m433.890625 389.542969c-15.21875 0-27.597656 12.378906-27.597656 27.597656 0 15.214844 12.378906 27.59375 27.597656 27.59375 15.214844 0 27.597656-12.378906 27.597656-27.59375 0-15.21875-12.382812-27.597656-27.597656-27.597656zm0 40.191406c-6.945313 0-12.597656-5.648437-12.597656-12.59375 0-6.949219 5.652343-12.597656 12.597656-12.597656s12.597656 5.648437 12.597656 12.597656c0 6.945313-5.652343 12.59375-12.597656 12.59375zm0 0"></path><path d="m78.109375 444.734375c15.21875 0 27.597656-12.378906 27.597656-27.59375 0-15.21875-12.378906-27.597656-27.597656-27.597656-15.214844 0-27.597656 12.378906-27.597656 27.597656 0 15.214844 12.382812 27.59375 27.597656 27.59375zm0-40.191406c6.945313 0 12.597656 5.652343 12.597656 12.597656s-5.652343 12.597656-12.597656 12.597656-12.597656-5.652343-12.597656-12.597656 5.652343-12.597656 12.597656-12.597656zm0 0"></path><path d="m72.761719 199.636719h-8.445313c-1.972656 0-2.957031.984375-2.957031 2.953125v11.121094h-.984375c-7.226562 0-12.835938 1.992187-16.824219 5.980468-3.988281 3.992188-5.980469 9.691406-5.980469 17.101563v5.207031c0 9.855469 2.625 16.46875 7.882813 19.847656 2.53125 1.691406 5.015625 2.886719 7.457031 3.589844 2.4375.703125 6.125 1.292969 11.050782 1.761719 4.925781.46875 8.234374.890625 9.925781 1.265625 1.875.46875 3.519531 1.359375 4.925781 2.671875 1.40625 1.316406 2.109375 3.144531 2.109375 5.492187v2.109375c0 3.847657-.726563 6.476563-2.179687 7.882813-1.457032 1.40625-4.011719 2.113281-7.671876 2.113281h-5.632812c-3.753906 0-6.332031-.65625-7.738281-1.972656-1.410157-1.3125-2.113281-3.75-2.113281-7.320313v-.984375c0-1.96875-.984376-2.957031-2.957032-2.957031h-11.960937c-1.972657 0-2.957031.988281-2.957031 2.957031v2.675781c0 7.226563 1.992187 12.878907 5.984374 16.960938 3.984376 4.078125 9.546876 6.121094 16.679688 6.121094h.984375v10.839844c0 1.96875.984375 2.953124 2.957031 2.953124h8.445313c1.972656 0 2.957031-.984374 2.957031-2.953124v-10.839844h.28125c7.039062 0 12.601562-2.015625 16.679688-6.050782 4.085937-4.035156 6.125-9.714843 6.125-17.035156v-5.347656c0-9.195312-2.488282-15.574219-7.460938-19.144531-2.4375-1.6875-4.902344-2.929688-7.386719-3.726563-2.488281-.796875-6.195312-1.410156-11.121093-1.832031-4.929688-.421875-8.425782-.820313-10.488282-1.195313-1.785156-.375-3.378906-1.148437-4.789062-2.324218-1.40625-1.171875-2.109375-2.789063-2.109375-4.855469v-2.8125c0-4.222656.679687-7.058594 2.042969-8.515625 1.359374-1.453125 3.960937-2.183594 7.8125-2.183594h4.503906c3.847656 0 6.453125.660156 7.8125 1.972656s2.039062 3.753907 2.039062 7.320313v.984375c0 1.96875.988282 2.953125 2.957032 2.953125h11.964843c1.972657 0 2.957031-.984375 2.957031-2.953125v-2.675781c0-7.128907-1.921874-12.757813-5.769531-16.890625-3.851562-4.125-9.105469-6.191406-15.765625-6.191406h-.28125v-11.121094c-.003906-1.96875-.988281-2.953125-2.960937-2.953125zm0 0"></path><path d="m438.246094 318.007812h8.445312c1.972656 0 2.957032-.984374 2.957032-2.953124v-10.839844h.28125c7.039062 0 12.601562-2.015625 16.683593-6.050782 4.082031-4.035156 6.121094-9.714843 6.121094-17.035156v-5.347656c0-9.195312-2.488281-15.574219-7.457031-19.144531-2.441406-1.6875-4.90625-2.929688-7.390625-3.726563-2.488281-.796875-6.195313-1.410156-11.121094-1.832031-4.929687-.421875-8.425781-.820313-10.488281-1.195313-1.78125-.375-3.378906-1.148437-4.785156-2.324218-1.40625-1.171875-2.113282-2.789063-2.113282-4.855469v-2.8125c0-4.222656.683594-7.058594 2.042969-8.515625 1.359375-1.453125 3.964844-2.183594 7.8125-2.183594h4.503906c3.847657 0 6.453125.660156 7.8125 1.972656s2.042969 3.753907 2.042969 7.320313v.984375c0 1.96875.984375 2.953125 2.957031 2.953125h11.964844c1.96875 0 2.957031-.984375 2.957031-2.953125v-2.675781c0-7.128907-1.925781-12.757813-5.773437-16.890625-3.847657-4.125-9.105469-6.191406-15.765625-6.191406h-.28125v-11.121094c0-1.96875-.984375-2.953125-2.957032-2.953125h-8.445312c-1.972656 0-2.957031.984375-2.957031 2.953125v11.121094h-.984375c-7.226563 0-12.835938 1.992187-16.824219 5.980468-3.988281 3.992188-5.980469 9.691406-5.980469 17.101563v5.207031c0 9.855469 2.625 16.46875 7.882813 19.847656 2.53125 1.691406 5.015625 2.886719 7.460937 3.589844 2.4375.703125 6.121094 1.292969 11.046875 1.761719 4.929688.46875 8.234375.890625 9.925781 1.265625 1.875.46875 3.519532 1.359375 4.925782 2.671875 1.40625 1.316406 2.113281 3.144531 2.113281 5.492187v2.109375c0 3.847657-.730469 6.476563-2.183594 7.882813-1.457031 1.40625-4.011719 2.113281-7.671875 2.113281h-5.632812c-3.753906 0-6.332032-.65625-7.738282-1.972656-1.410156-1.3125-2.113281-3.75-2.113281-7.320313v-.984375c0-1.96875-.984375-2.957031-2.957031-2.957031h-11.964844c-1.96875 0-2.957031.988281-2.957031 2.957031v2.675781c0 7.226563 1.992187 12.878907 5.984375 16.960938 3.984375 4.078125 9.546875 6.121094 16.679688 6.121094h.984374v10.839844c0 1.96875.984376 2.953124 2.957032 2.953124zm0 0"></path></svg>