<svg xmlns="http://www.w3.org/2000/svg" id="Layer_1" height="512" viewBox="0 0 1600 1600" width="512"><g><g fill="rgb(0,0,0)"><path d="m800.3 1481.9c-92 0-181.3-18-265.3-53.6-81.2-34.3-154.1-83.5-216.7-146.1s-111.7-135.5-146.1-216.7c-35.5-84-53.6-173.3-53.6-265.3s18-181.3 53.6-265.3c34.3-81.2 83.5-154.1 146.1-216.7s135.5-111.7 216.7-146.1c84-35.5 173.3-53.6 265.3-53.6s181.3 18 265.3 53.6c81.2 34.3 154.1 83.5 216.7 146.1s111.7 135.5 146.1 216.7c35.5 84 53.6 173.3 53.6 265.3s-18 181.3-53.6 265.3c-34.3 81.2-83.5 154.1-146.1 216.7s-135.5 111.7-216.7 146.1c-84.1 35.5-173.3 53.6-265.3 53.6zm0-1315.3c-349.4 0-633.6 284.2-633.6 633.6s284.2 633.6 633.6 633.6 633.6-284.2 633.6-633.6c0-349.3-284.3-633.6-633.6-633.6z"></path><path d="m800.3 1377.7c-77.9 0-153.6-15.3-224.8-45.4-68.8-29.1-130.5-70.7-183.5-123.7s-94.7-114.8-123.7-183.5c-30.1-71.2-45.4-146.8-45.4-224.8s15.3-153.6 45.4-224.8c29-68.8 70.6-130.5 123.7-183.5s114.8-94.7 183.5-123.7c71.2-30.1 146.8-45.4 224.8-45.4s153.6 15.3 224.8 45.4c68.8 29.1 130.5 70.7 183.5 123.7s94.7 114.8 123.7 183.5c30.1 71.2 45.4 146.8 45.4 224.8s-15.3 153.6-45.4 224.8c-29.1 68.8-70.7 130.5-123.7 183.5s-114.8 94.7-183.5 123.7c-71.3 30.1-146.9 45.4-224.8 45.4zm0-1106.9c-291.9 0-529.4 237.5-529.4 529.4s237.5 529.4 529.4 529.4 529.4-237.5 529.4-529.4-237.5-529.4-529.4-529.4z"></path><path d="m800.3 357.5c-13.3 0-24-10.7-24-24v-277.5c0-13.3 10.7-24 24-24s24 10.7 24 24v277.5c0 13.2-10.8 24-24 24z"></path><path d="m333.5 823.7h-277.5c-13.3 0-24-10.7-24-24s10.7-24 24-24h277.5c13.3 0 24 10.7 24 24s-10.8 24-24 24z"></path><path d="m799.8 1568c-13.3 0-24-10.7-24-24v-277.5c0-13.3 10.7-24 24-24s24 10.7 24 24v277.5c0 13.3-10.8 24-24 24z"></path><path d="m1544 824.3h-277.5c-13.3 0-24-10.7-24-24s10.7-24 24-24h277.5c13.3 0 24 10.7 24 24s-10.7 24-24 24z"></path></g><g><path d="m800.3 1114.7c-84 0-163-32.7-222.3-92.1-59.4-59.4-92.1-138.4-92.1-222.3s32.7-163 92.1-222.3c59.4-59.4 138.4-92.1 222.3-92.1s163 32.7 222.3 92.1c59.4 59.4 92.1 138.4 92.1 222.3s-32.7 163-92.1 222.3c-59.4 59.4-138.4 92.1-222.3 92.1zm0-580.9c-146.9 0-266.4 119.5-266.4 266.4s119.5 266.4 266.4 266.4 266.4-119.5 266.4-266.4-119.5-266.4-266.4-266.4z" fill="rgb(0,0,0)"></path></g><g fill="rgb(0,0,0)"><path d="m800.3 815.6c-54.1 0-98.1-44-98.1-98.1s44-98.1 98.1-98.1 98.1 44 98.1 98.1-44.1 98.1-98.1 98.1zm0-148.1c-27.6 0-50.1 22.5-50.1 50.1s22.5 50.1 50.1 50.1 50.1-22.5 50.1-50.1-22.5-50.1-50.1-50.1z"></path><path d="m929.6 945h-258.7c-13.3 0-24-10.7-24-24 0-84.6 68.8-153.4 153.4-153.4s153.3 68.8 153.3 153.4c0 13.3-10.7 24-24 24zm-232-48h205.2c-10.9-46.6-52.8-81.4-102.6-81.4s-91.7 34.8-102.6 81.4z"></path></g></g></svg>