<svg xmlns="http://www.w3.org/2000/svg" xmlns:xlink="http://www.w3.org/1999/xlink" id="Capa_1" x="0px" y="0px" viewBox="0 0 512 512" style="enable-background:new 0 0 512 512;" xml:space="preserve" width="512" height="512"><g>	<path style="fill:none;stroke:#000000;stroke-width:15;stroke-linecap:round;stroke-linejoin:round;stroke-miterlimit:10;" d="&#10;&#9;&#9;M38.5,83.359v-23.62c0-13.76,11.15-24.91,24.91-24.91"></path>			<line style="fill:none;stroke:#000000;stroke-width:15;stroke-linecap:round;stroke-linejoin:round;stroke-miterlimit:10;" x1="174.45" y1="440.669" x2="174.45" y2="389.629"></line>			<line style="fill:none;stroke:#000000;stroke-width:15;stroke-linecap:round;stroke-linejoin:round;stroke-miterlimit:10;" x1="279.29" y1="440.669" x2="279.29" y2="389.629"></line>	<path style="fill:none;stroke:#000000;stroke-width:15;stroke-linecap:round;stroke-linejoin:round;stroke-miterlimit:10;" d="&#10;&#9;&#9;M7.5,146.679v-53.32c0-5.52,4.48-10,10-10h70.81"></path>	<path style="fill:none;stroke:#000000;stroke-width:15;stroke-linecap:round;stroke-linejoin:round;stroke-miterlimit:10;" d="&#10;&#9;&#9;M7.5,181.679v197.95c0,5.52,4.48,10,10,10h302.46"></path>	<path style="fill:none;stroke:#000000;stroke-width:15;stroke-linecap:round;stroke-linejoin:round;stroke-miterlimit:10;" d="&#10;&#9;&#9;M365.42,83.359h70.82c5.52,0,10,4.48,10,10v203.22"></path>	<path style="fill:none;stroke:#000000;stroke-width:15;stroke-linecap:round;stroke-linejoin:round;stroke-miterlimit:10;" d="&#10;&#9;&#9;M319.96,389.629H17.5c-5.52,0-10-4.48-10-10v-52.38h312.17"></path>	<path style="fill:none;stroke:#000000;stroke-width:15;stroke-linecap:round;stroke-linejoin:round;stroke-miterlimit:10;" d="&#10;&#9;&#9;M88.31,327.249V59.739c0-13.76-11.15-24.91-24.9-24.91h277.1c13.76,0,24.91,11.15,24.91,24.91v238.75"></path>	<path style="fill:none;stroke:#000000;stroke-width:15;stroke-linecap:round;stroke-linejoin:round;stroke-miterlimit:10;" d="&#10;&#9;&#9;M283.62,477.171h26.945c3.314,0,6-2.686,6-6v-24.5c0-3.314-2.686-6-6-6H143.174c-3.314,0-6,2.686-6,6v24.5c0,3.314,2.686,6,6,6&#10;&#9;&#9;H248.62"></path>			<line style="fill:none;stroke:#000000;stroke-width:15;stroke-linecap:round;stroke-linejoin:round;stroke-miterlimit:10;" x1="45.351" y1="358.44" x2="50.351" y2="358.44"></line>			<line style="fill:none;stroke:#000000;stroke-width:15;stroke-linecap:round;stroke-linejoin:round;stroke-miterlimit:10;" x1="224.369" y1="358.44" x2="229.369" y2="358.44"></line>			<line style="fill:none;stroke:#000000;stroke-width:15;stroke-linecap:round;stroke-linejoin:round;stroke-miterlimit:10;" x1="86.391" y1="358.44" x2="91.391" y2="358.44"></line>	<g>		<g>			<path style="fill:none;stroke:#000000;stroke-width:15;stroke-linecap:round;stroke-linejoin:round;stroke-miterlimit:10;" d="&#10;&#9;&#9;&#9;&#9;M199.285,109.231c0,0-9.515-7.998-20.736-4.618c-10.303,3.104-12.104,15.587-4.29,19.843c3.655,1.99,7.314,3.263,15.427,6.255&#10;&#9;&#9;&#9;&#9;c19.528,7.203,11.116,26.096-4.605,26.096c-7.872,0-14.48-3.448-18.479-7.86"></path>							<line style="fill:none;stroke:#000000;stroke-width:15;stroke-linecap:round;stroke-linejoin:round;stroke-miterlimit:10;" x1="183.82" y1="167.333" x2="183.82" y2="156.773"></line>							<line style="fill:none;stroke:#000000;stroke-width:15;stroke-linecap:round;stroke-linejoin:round;stroke-miterlimit:10;" x1="183.822" y1="103.787" x2="183.822" y2="93.251"></line>		</g>		<g>							<line style="fill:none;stroke:#000000;stroke-width:15;stroke-linecap:round;stroke-linejoin:round;stroke-miterlimit:10;" x1="233.98" y1="112.82" x2="248.048" y2="112.82"></line>							<line style="fill:none;stroke:#000000;stroke-width:15;stroke-linecap:round;stroke-linejoin:round;stroke-miterlimit:10;" x1="233.98" y1="147.764" x2="287.129" y2="147.764"></line>		</g>		<g>			<path style="fill:none;stroke:#000000;stroke-width:15;stroke-linecap:round;stroke-linejoin:round;stroke-miterlimit:10;" d="&#10;&#9;&#9;&#9;&#9;M199.285,214.478c0,0-9.515-7.998-20.736-4.618c-10.303,3.104-12.104,15.587-4.29,19.843c3.655,1.99,7.314,3.263,15.427,6.255&#10;&#9;&#9;&#9;&#9;c19.528,7.203,11.116,26.096-4.605,26.096c-7.872,0-14.48-3.448-18.479-7.86"></path>							<line style="fill:none;stroke:#000000;stroke-width:15;stroke-linecap:round;stroke-linejoin:round;stroke-miterlimit:10;" x1="183.82" y1="272.579" x2="183.82" y2="262.019"></line>							<line style="fill:none;stroke:#000000;stroke-width:15;stroke-linecap:round;stroke-linejoin:round;stroke-miterlimit:10;" x1="183.822" y1="209.034" x2="183.822" y2="198.497"></line>		</g>		<g>							<line style="fill:none;stroke:#000000;stroke-width:15;stroke-linecap:round;stroke-linejoin:round;stroke-miterlimit:10;" x1="233.98" y1="218.066" x2="248.048" y2="218.066"></line>							<line style="fill:none;stroke:#000000;stroke-width:15;stroke-linecap:round;stroke-linejoin:round;stroke-miterlimit:10;" x1="233.98" y1="253.01" x2="287.129" y2="253.01"></line>		</g>	</g>	<path style="fill:none;stroke:#000000;stroke-width:15;stroke-linecap:round;stroke-linejoin:round;stroke-miterlimit:10;" d="&#10;&#9;&#9;M483.504,350.897l19.752-19.395c1.352-1.328,1.635-3.402,0.687-5.043l-18.585-32.19c-0.947-1.641-2.885-2.433-4.711-1.926&#10;&#9;&#9;l-26.67,7.407c-1.169,0.325-2.411,0.107-3.425-0.559c-2.204-1.447-4.493-2.776-6.861-3.973c-1.08-0.546-1.887-1.511-2.19-2.683&#10;&#9;&#9;l-6.917-26.786c-0.474-1.835-2.129-3.117-4.024-3.117h-37.169c-1.895,0-3.55,1.282-4.024,3.117l-6.917,26.786&#10;&#9;&#9;c-0.303,1.172-1.11,2.137-2.19,2.683c-2.367,1.197-4.656,2.525-6.861,3.973c-1.014,0.666-2.257,0.884-3.426,0.559l-26.67-7.407&#10;&#9;&#9;c-1.826-0.507-3.763,0.285-4.711,1.926l-18.585,32.19c-0.947,1.641-0.665,3.715,0.687,5.043l19.752,19.395&#10;&#9;&#9;c0.853,0.837,1.308,2.006,1.235,3.199c-0.169,2.774-0.169,5.225,0,8.001c0.073,1.193-0.382,2.362-1.235,3.199l-19.752,19.395&#10;&#9;&#9;c-1.352,1.328-1.635,3.402-0.687,5.043l18.585,32.19c0.947,1.641,2.885,2.433,4.711,1.926l26.67-7.407&#10;&#9;&#9;c1.169-0.325,2.411-0.107,3.426,0.559c2.204,1.448,4.493,2.776,6.861,3.973c1.08,0.546,1.887,1.511,2.19,2.683l6.917,26.786&#10;&#9;&#9;c0.474,1.835,2.129,3.117,4.024,3.117h37.169c1.895,0,3.55-1.282,4.024-3.117l6.917-26.786c0.303-1.172,1.11-2.137,2.19-2.683&#10;&#9;&#9;c2.367-1.197,4.656-2.525,6.861-3.973c1.014-0.666,2.256-0.884,3.426-0.559l26.67,7.407c1.826,0.507,3.763-0.285,4.711-1.926&#10;&#9;&#9;l18.585-32.19c0.947-1.641,0.665-3.715-0.687-5.043l-19.752-19.395c-0.853-0.837-1.308-2.006-1.235-3.199&#10;&#9;&#9;c0.169-2.774,0.169-5.225,0-8.001C482.196,352.903,482.652,351.734,483.504,350.897z M411.976,385.275&#10;&#9;&#9;c-15.011,0-27.179-12.169-27.179-27.179c0-15.01,12.169-27.179,27.179-27.179c15.011,0,27.179,12.169,27.179,27.179&#10;&#9;&#9;C439.155,373.107,426.987,385.275,411.976,385.275z"></path></g></svg>