<svg xmlns="http://www.w3.org/2000/svg" height="490.66667pt" viewBox="0 0 490.66667 490.66667" width="490.66667pt"><path d="m341.332031 416h21.335938v32h-21.335938zm0 0"></path><path d="m341.332031 256h21.335938v32h-21.335938zm0 0"></path><path d="m373.332031 426.667969h-42.664062c-23.46875 0-42.667969-19.203125-42.667969-42.667969v-10.667969h21.332031v10.667969c0 11.734375 9.601563 21.332031 21.335938 21.332031h42.664062c11.734375 0 21.335938-9.597656 21.335938-21.332031s-9.601563-21.332031-21.335938-21.332031h-42.664062c-23.46875 0-42.667969-19.203125-42.667969-42.667969s19.199219-42.667969 42.667969-42.667969h42.664062c23.46875 0 42.667969 19.203125 42.667969 42.667969v10.667969h-21.332031v-10.667969c0-11.734375-9.601563-21.332031-21.335938-21.332031h-42.664062c-11.734375 0-21.335938 9.597656-21.335938 21.332031s9.601563 21.332031 21.335938 21.332031h42.664062c23.46875 0 42.667969 19.203125 42.667969 42.667969s-19.199219 42.667969-42.667969 42.667969zm0 0"></path><path d="m352 490.667969c-76.398438 0-138.667969-62.269531-138.667969-138.667969s62.269531-138.667969 138.667969-138.667969 138.667969 62.269531 138.667969 138.667969-62.269531 138.667969-138.667969 138.667969zm0-256c-64.667969 0-117.332031 52.664062-117.332031 117.332031s52.664062 117.332031 117.332031 117.332031 117.332031-52.664062 117.332031-117.332031-52.664062-117.332031-117.332031-117.332031zm0 0"></path><path d="m416 196.398438-56.535156-56.53125 15.070312-15.066407 41.464844 41.464844 41.601562-41.597656 15.066407 15.066406zm0 0"></path><path d="m426.667969 181.332031h-21.335938v-53.332031c0-58.800781-47.867187-106.667969-106.664062-106.667969h-10.667969v-21.332031h10.667969c70.53125 0 128 57.464844 128 128zm0 0"></path><path d="m138.667969 277.332031c-76.402344 0-138.667969-62.265625-138.667969-138.664062 0-76.402344 62.265625-138.667969 138.667969-138.667969 76.398437 0 138.664062 62.265625 138.664062 138.667969 0 76.398437-62.265625 138.664062-138.664062 138.664062zm0-256c-64.667969 0-117.335938 52.667969-117.335938 117.335938 0 64.664062 52.667969 117.332031 117.335938 117.332031 64.664062 0 117.332031-52.667969 117.332031-117.332031 0-64.667969-52.667969-117.335938-117.332031-117.335938zm0 0"></path><path d="m190.933594 206-62.933594-62.933594v-100.398437h21.332031v91.597656l56.667969 56.667969zm0 0"></path><path d="m33.066406 366-15.066406-15.066406 56.667969-56.667969 56.53125 56.535156-15.066407 15.066407-41.464843-41.46875zm0 0"></path><path d="m202.667969 490.667969h-10.667969c-70.535156 0-128-57.46875-128-128v-53.335938h21.332031v53.335938c0 58.796875 47.867188 106.664062 106.667969 106.664062h10.667969zm0 0"></path></svg>