<svg xmlns="http://www.w3.org/2000/svg" id="Layer_1" height="512" viewBox="0 0 1000 1000" width="512" data-name="Layer 1"><path d="m500 859.23c-51.38 0-99.84-4.13-136.45-11.63-46.38-9.51-68-23.17-68-43 0-23.57 31.25-34.11 54.76-40 28.13-7 67.11-11.93 109.75-13.78a16 16 0 1 1 1.39 32c-74.2 3.18-115.08 14.43-129.45 21.75 6.54 3.42 20.35 8.73 48.25 13.63 33.19 5.82 75.72 9 119.76 9s86.58-3.21 119.77-9c27.9-4.9 41.7-10.21 48.24-13.63-14.37-7.32-55.25-18.53-129.46-21.75a16 16 0 1 1 1.39-32c42.64 1.85 81.61 6.74 109.75 13.78 23.5 5.87 54.75 16.41 54.75 40 0 19.82-21.6 33.48-68 43-36.6 7.5-85.06 11.63-136.45 11.63z"></path><path d="m539.24 820.61h-78.48a16 16 0 0 1 -16-16v-113.76a16 16 0 0 1 16-16h78.48a16 16 0 0 1 16 16v113.76a16 16 0 0 1 -16 16zm-62.48-32h46.48v-81.76h-46.48z"></path><path d="m804.56 643.46h-101.56a16 16 0 0 1 -16-16v-181.57a16 16 0 0 1 16-16h101.56a16 16 0 0 1 16 16v181.57a16 16 0 0 1 -16 16zm-85.52-32h69.52v-149.57h-69.56z"></path><path d="m703 643.46h-101.48a16 16 0 0 1 -16-16v-243.73a16 16 0 0 1 16-16h101.48a16 16 0 0 1 16 16v243.73a16 16 0 0 1 -16 16zm-85.52-32h69.52v-211.73h-69.48z"></path><path d="m601.52 643.46h-101.52a16 16 0 0 1 -16-16v-308.84a16 16 0 0 1 16-16h101.52a16 16 0 0 1 16 16v308.84a16 16 0 0 1 -16 16zm-85.52-32h69.52v-276.84h-69.52z"></path><path d="m500 643.46h-101.52a16 16 0 0 1 -16-16v-181.57a16 16 0 0 1 16-16h101.52a16 16 0 0 1 16 16v181.57a16 16 0 0 1 -16 16zm-85.52-32h69.52v-149.57h-69.52z"></path><path d="m398.48 643.46h-101.48a16 16 0 0 1 -16-16v-252.73a16 16 0 0 1 16-16h101.48a16 16 0 0 1 16 16v252.73a16 16 0 0 1 -16 16zm-85.52-32h69.52v-220.73h-69.48z"></path><path d="m297 643.46h-101.56a16 16 0 0 1 -16-16v-128.89a16 16 0 0 1 16-16h101.56a16 16 0 0 1 16 16v128.89a16 16 0 0 1 -16 16zm-85.52-32h69.52v-96.89h-69.56z"></path><path d="m900 271.22h-800a16 16 0 1 1 0-32h800a16 16 0 0 1 0 32z"></path><path d="m845.37 222h-21.52a16 16 0 1 1 0-32h21.52a16 16 0 0 1 0 32z"></path><path d="m778.82 222h-21.53a16 16 0 0 1 0-32h21.53a16 16 0 0 1 0 32z"></path><path d="m712.27 222h-21.53a16 16 0 0 1 0-32h21.53a16 16 0 0 1 0 32z"></path><path d="m900 706.85h-800a16 16 0 0 1 -16-16v-534.08a16 16 0 0 1 16-16h800a16 16 0 0 1 16 16v534.08a16 16 0 0 1 -16 16zm-784-32h768v-502.08h-768z"></path></svg>