<svg xmlns="http://www.w3.org/2000/svg" xmlns:xlink="http://www.w3.org/1999/xlink" id="Capa_1" x="0px" y="0px" viewBox="0 0 512.024 512.024" style="enable-background:new 0 0 512.024 512.024;" xml:space="preserve" width="512" height="512"><g>	<path style="fill:none;stroke:#000000;stroke-width:15;stroke-linecap:round;stroke-linejoin:round;stroke-miterlimit:10;" d="&#10;&#9;&#9;M456.64,52.212V19.697c0-6.736-5.461-12.197-12.197-12.197H67.581c-6.736,0-12.197,5.461-12.197,12.197v203.236&#10;&#9;&#9;c0,6.736,5.461,12.197,12.197,12.197h167.906l14.806,40.972c1.934,5.353,9.504,5.353,11.439,0l14.806-40.972h167.906&#10;&#9;&#9;c6.736,0,12.197-5.461,12.197-12.197v-135.6"></path>	<g>					<circle style="fill:none;stroke:#000000;stroke-width:15;stroke-linecap:round;stroke-linejoin:round;stroke-miterlimit:10;" cx="328.345" cy="396.816" r="107.707"></circle>					<circle style="fill:none;stroke:#000000;stroke-width:15;stroke-linecap:round;stroke-linejoin:round;stroke-miterlimit:10;" cx="328.345" cy="396.816" r="80.708"></circle>		<g>			<path style="fill:none;stroke:#000000;stroke-width:15;stroke-linecap:round;stroke-linejoin:round;stroke-miterlimit:10;" d="&#10;&#9;&#9;&#9;&#9;M261.562,481.32v7.27c0,8.69-7.04,15.73-15.73,15.73H82.062c-8.69,0-15.74-7.04-15.74-15.73v-13.53&#10;&#9;&#9;&#9;&#9;c0-8.69,7.05-15.74,15.74-15.74"></path>							<line style="fill:none;stroke:#000000;stroke-width:15;stroke-linecap:round;stroke-linejoin:round;stroke-miterlimit:10;" x1="139.883" y1="459.32" x2="240.622" y2="459.32"></line>			<path style="fill:none;stroke:#000000;stroke-width:15;stroke-linecap:round;stroke-linejoin:round;stroke-miterlimit:10;" d="&#10;&#9;&#9;&#9;&#9;M222.062,414.32h-140c-8.69,0-15.74,7.05-15.74,15.74v13.53c0,8.69,7.05,15.73,15.74,15.73h22.633"></path>			<path style="fill:none;stroke:#000000;stroke-width:15;stroke-linecap:round;stroke-linejoin:round;stroke-miterlimit:10;" d="&#10;&#9;&#9;&#9;&#9;M222.062,414.32h-105.79c-8.69,0-15.74-7.04-15.74-15.73v-13.53c0-8.69,7.05-15.74,15.74-15.74h107.92"></path>			<path style="fill:none;stroke:#000000;stroke-width:15;stroke-linecap:round;stroke-linejoin:round;stroke-miterlimit:10;" d="&#10;&#9;&#9;&#9;&#9;M224.192,369.32H82.062c-8.69,0-15.74-7.04-15.74-15.73v-13.53c0-8.69,7.05-15.74,15.74-15.74h163.77c0.91,0,1.8,0.08,2.66,0.23"></path>		</g>					<line style="fill:none;stroke:#000000;stroke-width:15;stroke-linecap:round;stroke-linejoin:round;stroke-miterlimit:10;" x1="297.36" y1="427.801" x2="359.33" y2="365.832"></line>	</g>	<g>		<path style="fill:none;stroke:#000000;stroke-width:15;stroke-linecap:round;stroke-linejoin:round;stroke-miterlimit:10;" d="&#10;&#9;&#9;&#9;M400.224,75.081l-34.215-34.208c-5.858-5.857-15.356-5.856-21.213,0.002c-5.857,5.858-5.856,15.356,0.002,21.213l8.602,8.6&#10;&#9;&#9;&#9;H221.476c-8.284,0-15,6.716-15,15s6.716,15,15,15h131.934l-8.608,8.61c-13.809,13.941,7.289,35.018,21.216,21.211l34.208-34.215&#10;&#9;&#9;&#9;C406.083,90.436,406.083,80.939,400.224,75.081z"></path>		<path style="fill:none;stroke:#000000;stroke-width:15;stroke-linecap:round;stroke-linejoin:round;stroke-miterlimit:10;" d="&#10;&#9;&#9;&#9;M111.8,141.72l34.215-34.208c5.858-5.857,15.356-5.856,21.213,0.002c5.857,5.858,5.856,15.356-0.002,21.213l-8.602,8.6h131.923&#10;&#9;&#9;&#9;c8.284,0,15,6.716,15,15s-6.716,15-15,15H158.613l8.608,8.61c13.809,13.941-7.289,35.018-21.216,21.211l-34.208-34.215&#10;&#9;&#9;&#9;C105.94,157.075,105.941,147.578,111.8,141.72z"></path>	</g></g></svg>