<svg xmlns="http://www.w3.org/2000/svg" height="512" viewBox="0 0 512 512" width="512"><g id="_x34_27_x2C__Audio_Visual_x2C__Video_Graphics_x2C__Video"><g><path d="m472.172 60.582c-6.08-3.168-13.797-4.582-25.02-4.582h-382.303c-21.422 0-38.849 17.427-38.849 38.849v322.304c0 21.42 17.427 38.847 38.849 38.847h382.303c23.354 0 38.848-29.401 38.848-48.848v-322.303c0-14.101-7.52-20.98-13.828-24.267zm-6.172 346.57c0 11.652-9.929 28.848-18.849 28.848h-382.302c-10.393 0-18.849-8.455-18.849-18.848v-322.303c0-10.393 8.456-18.849 18.849-18.849h382.303c18.848 0 18.848 4.498 18.848 8.849z"></path><path d="m421 96h-330c-13.785 0-25 11.215-25 25v190c0 13.785 11.215 25 25 25h330c13.785 0 25-11.215 25-25v-190c0-13.785-11.215-25-25-25zm5 215c0 2.757-2.243 5-5 5h-330c-2.757 0-5-2.243-5-5v-190c0-2.757 2.243-5 5-5h330c2.757 0 5 2.243 5 5z"></path><path d="m436 376h-251.72c-4.128-11.639-15.244-20-28.28-20s-24.152 8.361-28.28 20h-51.72c-5.523 0-10 4.478-10 10s4.477 10 10 10h51.72c4.128 11.639 15.244 20 28.28 20s24.152-8.361 28.28-20h251.72c5.522 0 10-4.478 10-10s-4.478-10-10-10zm-280 20c-5.514 0-10-4.486-10-10s4.486-10 10-10 10 4.486 10 10-4.486 10-10 10z"></path><path d="m311.734 207.808-100-70c-3.054-2.137-7.045-2.399-10.353-.677-3.307 1.722-5.382 5.141-5.382 8.87v140c0 3.728 2.075 7.147 5.382 8.87 3.299 1.716 7.29 1.467 10.353-.678l100-70c5.679-3.976 5.687-12.405 0-16.385zm-95.734 58.985v-101.587l72.563 50.794z"></path></g></g></svg>